inDegrees=yes
name=ik_lifting_orientations
DataType=double
version=3
OpenSimVersion=4.5-2024-01-10-34fd6af
endheader
time	pelvis_tilt	pelvis_list	pelvis_rotation	pelvis_tx	pelvis_ty	pelvis_tz	hip_flexion_r	hip_adduction_r	hip_rotation_r	knee_angle_r	knee_angle_r_beta	ankle_angle_r	subtalar_angle_r	mtp_angle_r	hip_flexion_l	hip_adduction_l	hip_rotation_l	knee_angle_l	knee_angle_l_beta	ankle_angle_l	subtalar_angle_l	mtp_angle_l	lumbar_extension	lumbar_bending	lumbar_rotation	arm_flex_r	arm_add_r	arm_rot_r	elbow_flex_r	pro_sup_r	wrist_flex_r	wrist_dev_r	arm_flex_l	arm_add_l	arm_rot_l	elbow_flex_l	pro_sup_l	wrist_flex_l	wrist_dev_l
0.28	0.412744886796544	0.2730594413266476	13.0708585944794	0	0.9399999998679526	0	42.98373829556561	-10.01412652147019	0	60.70173030200351	1.059445055427573	-4.906983304313775	0	0	42.98373829556561	-10.01412652147019	0	60.70173030200351	1.059445055427573	-4.906983304313775	0	0	-0.4661449212183831	-0.1593183257174947	0.7971758568183999	-0.9732876801237597	-1.018597972100608	0.268067871628054	0.1016689591799982	-0.3059439261714795	0	0	0	-10.82720312387453	0	90.78072829629053	-0.3059439261714795	0	0
0.29	0.4142233303581054	0.2798277335855729	13.07078924963328	0	0.9399999998679526	0	42.98425775379714	-10.01411378439894	0	60.70158877824126	1.059442585371952	-4.907092755078057	0	0	42.98425775379714	-10.01411378439894	0	60.70158877824126	1.059442585371952	-4.907092755078057	0	0	-0.4670612418105614	-0.171758008001333	0.7949728385312894	-1.059216006699651	-1.688921024960767	0.1835632283398425	0.08462358505767044	-0.3058891859631744	0	0	0	-10.82775320958243	0	90.78058853561521	-0.3058891859631744	0	0
0.3	0.4185032415268084	0.2827988893683488	13.07149994745342	0	0.9399999998679526	0	42.98480981378817	-10.01410025780872	0	60.70143835562668	1.059439960002058	-4.90720895575947	0	0	42.98480981378817	-10.01410025780872	0	60.70143835562668	1.059439960002058	-4.90720895575947	0	0	-0.4681558803088773	-0.1792036528256742	0.7938750654818573	-1.337719683803924	-2.762794141396078	0.07467403605623522	0.08570144555540866	-0.3058310042489777	0	0	0	-10.82833791758289	0	90.78043998822082	-0.3058310042489777	0	0
0.31	0.4128920635816644	0.2813378471271019	13.06761971721409	0	0.9399999998679526	0	42.98533233757824	-10.01408746048031	0	60.70129599822933	1.05943747539676	-4.907318865553512	0	0	42.98533233757824	-10.01408746048031	0	60.70129599822933	1.05943747539676	-4.907318865553512	0	0	-0.4658007110086947	-0.1680646132723277	0.7927811095049193	-1.489518030853087	-3.314722349082027	0.05006466136074583	0.1047314327279421	-0.3057759347594304	0	0	0	-10.8288913425405	0	90.78029938684435	-0.3057759347594304	0	0
0.32	0.4156859136391661	0.2830104373988059	13.06375640911725	0	0.9399999998679526	0	42.98584258878026	-10.01407497479484	0	60.70115694688617	1.059435048492992	-4.907426064867196	0	0	42.98584258878026	-10.01407497479484	0	60.70115694688617	1.059435048492992	-4.907426064867196	0	0	-0.4666631130505958	-0.1781012929505223	0.8002618678423475	-1.734029243175612	-3.954134615299457	0.5098677575355598	0.09453044167418145	-0.3057221500893531	0	0	0	-10.82943191829012	0	90.78016206583	-0.3057221500893531	0	0
0.33	0.4205630712738636	0.2829418876176701	13.07528282259471	0	0.9399999998679526	0	42.98639503086024	-10.01406146661051	0	60.70100638399348	1.059432420674784	-4.907542007902791	0	0	42.98639503086024	-10.01406146661051	0	60.70100638399348	1.059432420674784	-4.907542007902791	0	0	-0.4697143017049935	-0.1782967302670808	0.789739677280787	-1.921151923779606	-5.030499355949693	-0.174028041471871	0.09058926447260683	-0.3056639125049995	0	0	0	-10.83001728436237	0	90.78001337580712	-0.3056639125049995	0	0
0.34	0.4151380829706698	0.2691834265836667	13.06770972378972	0	0.9399999998679526	0	42.98694219724978	-10.01404810112359	0	60.70085720720617	1.059429817048678	-4.907656685572316	0	0	42.98694219724978	-10.01404810112359	0	60.70085720720617	1.059429817048678	-4.907656685572316	0	0	-0.4675807200645447	-0.1641799226638952	0.797620376549238	-1.632922067983861	-6.402990187120889	-0.1573692439505385	0.1438875781790279	-0.3056062199350399	0	0	0	-10.83059725458369	0	90.77986607730584	-0.3056062199350399	0	0
0.35	0.4153973110978073	0.2960098726584049	13.07279300261307	0	0.9399999998679526	0	42.98721030036333	-10.01404157156341	0	60.70078396978602	1.05942853881456	-4.907712670429129	0	0	42.98721030036333	-10.01404157156341	0	60.70078396978602	1.05942853881456	-4.907712670429129	0	0	-0.4767686018765548	-0.225117684500156	0.7933582139123303	-1.807287165369613	-6.90462447426308	-0.1889659380227736	0.1988822135091792	-0.3055779286500699	0	0	0	-10.83088184787998	0	90.77979384508166	-0.3055779286500699	0	0
0.36	0.4164144398664936	0.2771999586447277	13.07332703549423	0	0.9399999998679526	0	42.98778529683212	-10.01402753445728	0	60.70062725065127	1.059425803549658	-4.907833067388167	0	0	42.98778529683212	-10.01402753445728	0	60.70062725065127	1.059425803549658	-4.907833067388167	0	0	-0.4707482742541701	-0.1751894050281655	0.7904532886640986	-1.838842787224937	-7.404603628532954	-0.8389128817819786	0.163762444282203	-0.305517302749877	0	0	0	-10.83149127785487	0	90.77963905731249	-0.305517302749877	0	0
0.37	0.4117660280066349	0.2821107617974295	13.0703160018848	0	0.9399999998679526	0	42.98825559303684	-10.01401606541511	0	60.70049901786822	1.059423565465385	-4.907931403393936	0	0	42.98825559303684	-10.01401606541511	0	60.70049901786822	1.059423565465385	-4.907931403393936	0	0	-0.4688618814238014	-0.1833056185031492	0.7936363318839948	-2.018370681940465	-7.943965574290873	-0.873813331096093	0.2343040329188673	-0.3054677058131216	0	0	0	-10.83198991887141	0	90.77951242828837	-0.3054677058131216	0	0
0.38	0.4206474911264271	0.2856873879415455	13.07047621893869	0	0.9399999998679526	0	42.98852157874692	-10.01400958657406	0	60.7004264597357	1.059422299087073	-4.907986931711519	0	0	42.98852157874692	-10.01400958657406	0	60.7004264597357	1.059422299087073	-4.907986931711519	0	0	-0.4645572582057024	-0.1906921348077682	0.7912418222042006	-2.078959422782308	-8.084842637055663	-0.8975935750072326	0.2612468223897446	-0.3054396487716388	0	0	0	-10.83227204812419	0	90.77944079411671	-0.3054396487716388	0	0
0.39	0.4209758225980059	0.2768644611593155	13.06603323266301	0	0.9399999998679526	0	42.9889916557886	-10.01399814069687	0	60.70029820770004	1.059420060666779	-4.908085019140947	0	0	42.9889916557886	-10.01399814069687	0	60.70029820770004	1.059420060666779	-4.908085019140947	0	0	-0.4795062659932511	-0.1763336177323567	0.8005894123987998	-2.393389744514995	-8.146350080233402	-0.3063152134440889	0.7716284798309082	-0.3053900591260128	0	0	0	-10.83277073654419	0	90.7793141837238	-0.3053900591260128	0	0
0.4	0.42039783128248	0.2764820709514579	13.07040500250671	0	0.9399999998679526	0	42.98964228746225	-10.01398228169522	0	60.70012094967738	1.059416966930657	-4.908220927975897	0	0	42.98964228746225	-10.01398228169522	0	60.70012094967738	1.059416966930657	-4.908220927975897	0	0	-0.4758497485405285	-0.1754865511977492	0.794843298902792	-2.270319251559102	-8.419393771476198	0.3352608637177163	1.456119185223672	-0.3053214558253825	0	0	0	-10.83346032989175	0	90.7791390283618	-0.3053214558253825	0	0
